<svg width="104" height="104" viewBox="0 0 104 104" fill="none" xmlns="http://www.w3.org/2000/svg">
<circle cx="52" cy="52" r="52" fill="#778768"/>
<rect width="67" height="67" transform="translate(22 22)" fill="#778768"/>
<path d="M85.7338 34.0165C71.1412 42.5791 72.1864 60.1666 61.9622 68.1027C54.2672 74.0758 43.4099 71.0507 37.132 68.4813C37.132 68.4813 32.8775 73.8513 29.8256 81.0103C28.8039 83.4122 24.3182 80.7657 25.1055 78.7323C35.0818 52.9875 69.024 40.1436 69.024 40.1436C69.024 40.1436 45.0748 39.1286 29.0685 60.0426C28.6397 55.2655 27.9295 42.3412 40.3245 34.4151C57.1281 23.6583 89.1407 32.0199 85.7338 34.0165Z" fill="url(#paint0_linear_486_8115)"/>
<defs>
<linearGradient id="paint0_linear_486_8115" x1="55.4994" y1="29.0354" x2="55.4994" y2="81.9649" gradientUnits="userSpaceOnUse">
<stop stop-color="white"/>
<stop offset="1" stop-color="#999999"/>
</linearGradient>
</defs>
</svg>
